<svg xmlns="http://www.w3.org/2000/svg" version="1.1" xmlns:xlink="http://www.w3.org/1999/xlink" xmlns:svgjs="http://svgjs.dev/svgjs" width="1500" height="1500" viewBox="0 0 1500 1500"><rect width="1500" height="1500" fill="#000000"></rect><g transform="matrix(0.6666666666666666,0,0,0.6666666666666666,249.39393939393938,656.3349145803746)"><svg viewBox="0 0 396 74" data-background-color="#283845" preserveAspectRatio="xMidYMid meet" height="280" width="1500" xmlns="http://www.w3.org/2000/svg" xmlns:xlink="http://www.w3.org/1999/xlink"><g id="tight-bounds" transform="matrix(1,0,0,1,0.2400000000000091,0.13151600563719512)"><svg viewBox="0 0 395.52 73.7369679887256" height="73.7369679887256" width="395.52"><g><svg viewBox="0 0 395.52 73.7369679887256" height="73.7369679887256" width="395.52"><g><svg viewBox="0 0 395.52 73.7369679887256" height="73.7369679887256" width="395.52"><g id="textblocktransform"><svg viewBox="0 0 395.52 73.7369679887256" height="73.7369679887256" width="395.52" id="textblock"><g><svg viewBox="0 0 395.52 73.7369679887256" height="73.7369679887256" width="395.52"><g transform="matrix(1,0,0,1,0,0)"><svg width="395.52" viewBox="1.2 -35.1 248.33 46.300000000000004" height="73.7369679887256" data-palette-color="#f2d492"><path d="M15 0.85L15 0.85Q12.6 0.85 10.6 0.15L10.6 0.15 7.95 3.05Q10.65 3.75 14.28 4.7 17.9 5.65 21.65 6.55L21.65 6.55Q23.5 6.95 25 6.15L25 6.15 26.75 5.3 27.35 6.2 24.35 8.7Q22.85 9.95 21.58 10.58 20.3 11.2 19 11.2L19 11.2Q18.25 11.2 16.8 10.9 15.35 10.6 13.53 10.15 11.7 9.7 9.8 9.2 7.9 8.7 6.2 8.3L6.2 8.3Q4.35 7.85 2.85 9L2.85 9 2.15 9.5 1.2 8.85 9.05-0.5Q6.1-1.95 4.38-5.08 2.65-8.2 2.65-12.9L2.65-12.9Q2.65-17.05 3.95-20.83 5.25-24.6 7.68-27.55 10.1-30.5 13.48-32.2 16.85-33.9 21-33.9L21-33.9Q24.75-33.9 27.53-32.23 30.3-30.55 31.85-27.48 33.4-24.4 33.4-20.2L33.4-20.2Q33.4-15.95 32.1-12.15 30.8-8.35 28.38-5.43 25.95-2.5 22.58-0.83 19.2 0.85 15 0.85ZM15.5-0.65L15.5-0.65Q17.8-0.65 19.83-2.27 21.85-3.9 23.4-6.75 24.95-9.6 25.83-13.33 26.7-17.05 26.7-21.3L26.7-21.3Q26.7-26.65 25.3-29.53 23.9-32.4 20.65-32.4L20.65-32.4Q18.35-32.4 16.3-30.8 14.25-29.2 12.68-26.4 11.1-23.6 10.2-19.88 9.3-16.15 9.3-11.9L9.3-11.9Q9.3-6.5 10.8-3.58 12.3-0.65 15.5-0.65ZM40.35 0.7L40.35 0.7Q38.7 0.7 37.5-0.28 36.3-1.25 36.3-3.3L36.3-3.3Q36.3-4.45 36.55-5.85 36.8-7.25 37.1-8.6L37.1-8.6 39.25-18.15Q39.7-20.2 37.8-20.95L37.8-20.95 36.95-21.3 37.05-22.2 46.05-24.8 46.65-24.3 43.2-9.3Q42.9-8.05 42.7-7.05 42.5-6.05 42.5-5.2L42.5-5.2Q42.5-4.1 43-3.63 43.5-3.15 44.3-3.15L44.3-3.15Q45.5-3.15 46.92-3.98 48.35-4.8 50.35-6.6L50.35-6.6 50.4-6.85 52.1-14.9Q52.5-16.95 52.9-18.98 53.3-21 53.65-23.05L53.65-23.05 59.5-24.8 60.15-24.3 56.25-6.45Q56.1-5.6 55.97-4.9 55.85-4.2 55.85-3.75L55.85-3.75Q55.85-3.25 56.15-2.98 56.45-2.7 56.8-2.7L56.8-2.7Q57.5-2.7 58.22-3.23 58.95-3.75 60.05-4.8L60.05-4.8 60.8-4.05Q59.55-2.3 57.67-0.8 55.8 0.7 53.4 0.7L53.4 0.7Q51.95 0.7 50.92-0.3 49.9-1.3 49.9-3.2L49.9-3.2Q49.9-3.95 50-4.8L50-4.8Q47.4-2.2 44.97-0.75 42.55 0.7 40.35 0.7ZM71.6-27.7L71.6-27.7Q70.2-27.7 69.2-28.6 68.2-29.5 68.2-31.05L68.2-31.05Q68.2-32.7 69.4-33.8 70.6-34.9 72.1-34.9L72.1-34.9Q73.55-34.9 74.5-33.98 75.45-33.05 75.45-31.6L75.45-31.6Q75.45-30 74.27-28.85 73.1-27.7 71.6-27.7ZM67 0.7L67 0.7Q65.5 0.7 64.52-0.08 63.55-0.85 63.55-2.35L63.55-2.35Q63.55-3.2 63.75-4.4 63.95-5.6 64.2-6.85L64.2-6.85 66.55-18.15Q67-20.25 65-21L65-21 64.3-21.3 64.4-22.2 73.4-24.8 73.9-24.3 70.1-6.45Q69.9-5.6 69.8-4.98 69.7-4.35 69.7-3.8L69.7-3.8Q69.7-2.7 70.7-2.7L70.7-2.7Q71.9-2.7 73.85-4.6L73.85-4.6 74.5-3.95Q73.25-2.1 71.37-0.7 69.5 0.7 67 0.7ZM85.74 0.7L85.74 0.7Q82.09 0.7 79.77-1.75 77.44-4.2 77.44-8.7L77.44-8.7Q77.44-11.9 78.57-14.8 79.69-17.7 81.64-19.93 83.59-22.15 86.14-23.45 88.69-24.75 91.54-24.75L91.54-24.75Q93.29-24.75 94.77-24.2 96.24-23.65 97.14-22.7 98.04-21.75 97.99-20.45L97.99-20.45Q97.94-19.15 97.14-18.4 96.34-17.65 95.14-17.65L95.14-17.65Q93.79-17.65 92.97-18.4 92.14-19.15 91.59-20.25L91.59-20.25 91.24-21.05Q90.59-22.5 89.99-22.7 89.39-22.9 88.24-21.95L88.24-21.95Q86.94-20.8 85.77-18.93 84.59-17.05 83.89-14.75 83.19-12.45 83.19-10L83.19-10Q83.19-6.45 84.79-4.75 86.39-3.05 89.04-3.05L89.04-3.05Q90.84-3.05 92.54-4.17 94.24-5.3 95.69-7.2L95.69-7.2 96.49-6.55Q95.49-4.65 93.84-2.98 92.19-1.3 90.14-0.3 88.09 0.7 85.74 0.7ZM103.79 0L98.29 0.4 97.64-0.1 102.24-22.05Q102.59-23.75 102.89-25.33 103.19-26.9 103.49-28.55L103.49-28.55Q103.79-30.65 101.84-31.25L101.84-31.25 101.04-31.5 101.19-32.4 110.39-35.1 110.79-34.65 105.79-10.65Q105.14-7.65 104.69-5.15 104.24-2.65 103.79 0L103.79 0ZM119.44 0L111.84 0Q111.19-0.7 110.59-2 109.99-3.3 109.49-4.5L109.49-4.5 106.29-12.6 118.84-24.45Q120.14-24.4 121.04-23.65 121.94-22.9 121.94-21.5L121.94-21.5Q121.94-20.25 120.94-19.4 119.94-18.55 118.44-17.8L118.44-17.8 108.84-12.95 117.04-2.8Q117.94-1.65 119.19-1.05L119.19-1.05 119.59-0.85 119.44 0ZM139.44 0L126.34 0 126.54-1.05 127.74-1.4Q129.99-2.15 130.44-4.5L130.44-4.5 132.89-17.55Q133.49-20.75 134.16-24.55 134.84-28.35 135.34-31.55L135.34-31.55 133.14-31.55Q129.89-31.55 128.09-28.9L128.09-28.9 124.59-23.9 123.29-23.9 125.19-33.05 152.64-33.05 151.04-23.9 149.79-23.9 148.29-28.45Q147.34-31.55 144.04-31.55L144.04-31.55 141.99-31.55 138.94-15.5Q138.44-12.95 137.94-10.1 137.44-7.25 136.94-4.55L136.94-4.55Q136.59-2.1 138.89-1.25L138.89-1.25 139.64-1.05 139.44 0ZM159.54-27.7L159.54-27.7Q158.14-27.7 157.14-28.6 156.14-29.5 156.14-31.05L156.14-31.05Q156.14-32.7 157.34-33.8 158.54-34.9 160.04-34.9L160.04-34.9Q161.49-34.9 162.44-33.98 163.39-33.05 163.39-31.6L163.39-31.6Q163.39-30 162.21-28.85 161.04-27.7 159.54-27.7ZM154.94 0.7L154.94 0.7Q153.44 0.7 152.46-0.08 151.49-0.85 151.49-2.35L151.49-2.35Q151.49-3.2 151.69-4.4 151.89-5.6 152.14-6.85L152.14-6.85 154.49-18.15Q154.94-20.25 152.94-21L152.94-21 152.24-21.3 152.34-22.2 161.34-24.8 161.84-24.3 158.04-6.45Q157.84-5.6 157.74-4.98 157.64-4.35 157.64-3.8L157.64-3.8Q157.64-2.7 158.64-2.7L158.64-2.7Q159.84-2.7 161.79-4.6L161.79-4.6 162.44-3.95Q161.19-2.1 159.31-0.7 157.44 0.7 154.94 0.7ZM173.68 0.7L173.68 0.7Q170.03 0.7 167.71-1.75 165.38-4.2 165.38-8.7L165.38-8.7Q165.38-11.9 166.51-14.8 167.63-17.7 169.58-19.93 171.53-22.15 174.08-23.45 176.63-24.75 179.48-24.75L179.48-24.75Q181.23-24.75 182.71-24.2 184.18-23.65 185.08-22.7 185.98-21.75 185.93-20.45L185.93-20.45Q185.88-19.15 185.08-18.4 184.28-17.65 183.08-17.65L183.08-17.65Q181.73-17.65 180.91-18.4 180.08-19.15 179.53-20.25L179.53-20.25 179.18-21.05Q178.53-22.5 177.93-22.7 177.33-22.9 176.18-21.95L176.18-21.95Q174.88-20.8 173.71-18.93 172.53-17.05 171.83-14.75 171.13-12.45 171.13-10L171.13-10Q171.13-6.45 172.73-4.75 174.33-3.05 176.98-3.05L176.98-3.05Q178.78-3.05 180.48-4.17 182.18-5.3 183.63-7.2L183.63-7.2 184.43-6.55Q183.43-4.65 181.78-2.98 180.13-1.3 178.08-0.3 176.03 0.7 173.68 0.7ZM191.73 0L186.23 0.4 185.58-0.1 190.18-22.05Q190.53-23.75 190.83-25.33 191.13-26.9 191.43-28.55L191.43-28.55Q191.73-30.65 189.78-31.25L189.78-31.25 188.98-31.5 189.13-32.4 198.33-35.1 198.73-34.65 193.73-10.65Q193.08-7.65 192.63-5.15 192.18-2.65 191.73 0L191.73 0ZM207.38 0L199.78 0Q199.13-0.7 198.53-2 197.93-3.3 197.43-4.5L197.43-4.5 194.23-12.6 206.78-24.45Q208.08-24.4 208.98-23.65 209.88-22.9 209.88-21.5L209.88-21.5Q209.88-20.25 208.88-19.4 207.88-18.55 206.38-17.8L206.38-17.8 196.78-12.95 204.98-2.8Q205.88-1.65 207.13-1.05L207.13-1.05 207.53-0.85 207.38 0ZM218.48 0.7L218.48 0.7Q214.78 0.7 212.45-1.7 210.13-4.1 210.13-8.65L210.13-8.65Q210.13-11.8 211.23-14.7 212.33-17.6 214.25-19.88 216.18-22.15 218.78-23.45 221.38-24.75 224.38-24.75L224.38-24.75Q227.48-24.75 229.1-23.35 230.73-21.95 230.73-19.6L230.73-19.6Q230.73-16.75 226.95-13.98 223.18-11.2 216.03-9.65L216.03-9.65Q216.18-6.4 217.58-4.9 218.98-3.4 221.43-3.4L221.43-3.4Q223.63-3.4 225.38-4.55 227.13-5.7 228.33-7.25L228.33-7.25 229.08-6.7Q228.08-4.8 226.5-3.1 224.93-1.4 222.93-0.35 220.93 0.7 218.48 0.7ZM223.88-23.05L223.88-23.05Q222.73-23.05 221.43-22.08 220.13-21.1 218.95-19.43 217.78-17.75 216.98-15.58 216.18-13.4 216.03-10.95L216.03-10.95Q221.63-12.6 223.9-15.05 226.18-17.5 226.18-20.25L226.18-20.25Q226.18-21.7 225.53-22.38 224.88-23.05 223.88-23.05ZM237.33 0.7L237.33 0.7Q235.78 0.7 234.8-0.08 233.83-0.85 233.83-2.4L233.83-2.4Q233.83-4.3 234.43-7L234.43-7 237.78-22.5 233.53-22.5 233.73-23.55 235.73-23.75Q238.28-24.1 239.93-26.15L239.93-26.15 243.83-30.85 245.38-30.85 243.98-24 249.53-24 249.23-22.4 243.63-22.5 240.33-6.5Q240.13-5.6 240.03-4.93 239.93-4.25 239.93-3.8L239.93-3.8Q239.93-3.3 240.23-3 240.53-2.7 240.93-2.7L240.93-2.7Q241.98-2.7 244.13-4.85L244.13-4.85 244.93-4.2Q243.68-2.35 241.75-0.83 239.83 0.7 237.33 0.7Z" opacity="1" transform="matrix(1,0,0,1,0,0)" fill="#ffffff" class="wordmark-text-0" data-fill-palette-color="primary" id="text-0"></path></svg></g></svg></g></svg></g></svg></g><g></g></svg></g><defs></defs></svg><rect width="395.52" height="73.7369679887256" fill="none" stroke="none" visibility="hidden"></rect></g></svg></g></svg>