<svg xmlns="http://www.w3.org/2000/svg" version="1.1" xmlns:xlink="http://www.w3.org/1999/xlink" xmlns:svgjs="http://svgjs.dev/svgjs" width="1500" height="1500" viewBox="0 0 1500 1500"><rect width="1500" height="1500" fill="#ffffff"></rect><g transform="matrix(0.6666666666666666,0,0,0.6666666666666666,249.39393939393938,698.6300451619585)"><svg viewBox="0 0 396 41" data-background-color="#ffffff" preserveAspectRatio="xMidYMid meet" height="155" width="1500" xmlns="http://www.w3.org/2000/svg" xmlns:xlink="http://www.w3.org/1999/xlink"><g id="tight-bounds" transform="matrix(1,0,0,1,0.2400000000000091,-0.11772759651898923)"><svg viewBox="0 0 395.52 41.23545519303801" height="41.23545519303801" width="395.52"><g><svg viewBox="0 0 395.52 41.23545519303801" height="41.23545519303801" width="395.52"><g><svg viewBox="0 0 395.52 41.23545519303801" height="41.23545519303801" width="395.52"><g><svg viewBox="0 0 509.66587102895824 53.13588235294118" height="41.23545519303801" width="395.52"><g transform="matrix(1,0,0,1,114.14587102895817,0)"><svg viewBox="0 0 395.52000000000004 53.13588235294118" height="53.13588235294118" width="395.52000000000004"><g id="textblocktransform"><svg viewBox="0 0 395.52000000000004 53.13588235294118" height="53.13588235294118" width="395.52000000000004" id="textblock"><g><svg viewBox="0 0 395.52000000000004 53.13588235294118" height="53.13588235294118" width="395.52000000000004"><g transform="matrix(1,0,0,1,0,0)"><svg width="395.52000000000004" viewBox="2 -35.2 326.38 43.85" height="53.13588235294118" data-palette-color="#003b73"><path d="M28.1-17.25Q28.1-11.6 26.43-7.63 24.75-3.65 20.9-1.6L20.9-1.6Q24.75-0.85 26.93 0.98 29.1 2.8 30.4 6.65L30.4 6.65 25.05 8.65Q23.9 5.8 22.6 4.08 21.3 2.35 19.35 1.45 17.4 0.55 14.5 0.55L14.5 0.55Q8.45 0.55 5.23-4.17 2-8.9 2-17.2L2-17.2Q2-25.45 5.38-30.33 8.75-35.2 15.05-35.2L15.05-35.2Q21.4-35.2 24.75-30.4 28.1-25.6 28.1-17.25L28.1-17.25ZM22.05-17.25Q22.05-24.1 20.43-27.38 18.8-30.65 15.05-30.65L15.05-30.65Q11.3-30.65 9.68-27.35 8.05-24.05 8.05-17.2L8.05-17.2Q8.05-10.4 9.73-7.13 11.4-3.85 15.05-3.85L15.05-3.85Q18.8-3.85 20.43-7.13 22.05-10.4 22.05-17.25L22.05-17.25ZM56.95-34.5L56.95-11.3Q56.95-7.8 55.52-5.1 54.1-2.4 51.4-0.88 48.7 0.65 44.95 0.65L44.95 0.65Q39.3 0.65 36.17-2.6 33.05-5.85 33.05-11.3L33.05-11.3 33.05-34.5 38.85-34.5 38.85-12.4Q38.85-8.1 40.32-6.03 41.8-3.95 44.95-3.95L44.95-3.95Q48.15-3.95 49.62-6.03 51.1-8.1 51.1-12.4L51.1-12.4 51.1-34.5 56.95-34.5ZM85.4-34.5L85.4-30.1 77.9-30.1 77.9-4.45 85.4-4.45 85.4 0 64.59 0 64.59-4.45 72.09-4.45 72.09-30.1 64.59-30.1 64.59-34.5 85.4-34.5ZM107.89-35.2Q111.29-35.2 113.69-34.35 116.09-33.5 118.29-31.7L118.29-31.7 115.29-28.1Q112.14-30.65 108.14-30.65L108.14-30.65Q103.94-30.65 101.29-27.43 98.64-24.2 98.64-17.3L98.64-17.3Q98.64-10.5 101.24-7.28 103.84-4.05 108.19-4.05L108.19-4.05Q110.69-4.05 112.47-4.83 114.24-5.6 115.99-7L115.99-7 118.79-3.45Q114.59 0.65 107.99 0.65L107.99 0.65Q103.54 0.65 100.04-1.43 96.54-3.5 94.57-7.55 92.59-11.6 92.59-17.3L92.59-17.3Q92.59-22.9 94.62-26.95 96.64-31 100.14-33.1 103.64-35.2 107.89-35.2L107.89-35.2ZM130.19 0L124.39 0 124.39-34.5 130.19-34.5 130.19 0ZM130.44-18.45L142.39-34.5 148.79-34.5 136.74-18.8 149.74 0 142.79 0 130.44-18.45ZM167.84-29.8L167.84 0 162.04 0 162.04-29.8 151.64-29.8 151.64-34.5 178.39-34.5 177.79-29.8 167.84-29.8ZM205.39-34.5L205.39-30.1 197.89-30.1 197.89-4.45 205.39-4.45 205.39 0 184.59 0 184.59-4.45 192.09-4.45 192.09-30.1 184.59-30.1 184.59-34.5 205.39-34.5ZM227.88-35.2Q231.28-35.2 233.68-34.35 236.08-33.5 238.28-31.7L238.28-31.7 235.28-28.1Q232.13-30.65 228.13-30.65L228.13-30.65Q223.93-30.65 221.28-27.43 218.63-24.2 218.63-17.3L218.63-17.3Q218.63-10.5 221.23-7.28 223.83-4.05 228.18-4.05L228.18-4.05Q230.68-4.05 232.46-4.83 234.23-5.6 235.98-7L235.98-7 238.78-3.45Q234.58 0.65 227.98 0.65L227.98 0.65Q223.53 0.65 220.03-1.43 216.53-3.5 214.56-7.55 212.58-11.6 212.58-17.3L212.58-17.3Q212.58-22.9 214.61-26.95 216.63-31 220.13-33.1 223.63-35.2 227.88-35.2L227.88-35.2ZM250.18 0L244.38 0 244.38-34.5 250.18-34.5 250.18 0ZM250.43-18.45L262.38-34.5 268.78-34.5 256.73-18.8 269.73 0 262.78 0 250.43-18.45ZM281.43-30.1L281.43-19.7 293.93-19.7 293.93-15.35 281.43-15.35 281.43-4.4 296.68-4.4 296.68 0 275.63 0 275.63-34.5 296.38-34.5 295.73-30.1 281.43-30.1ZM317.83-29.8L317.83 0 312.03 0 312.03-29.8 301.63-29.8 301.63-34.5 328.38-34.5 327.78-29.8 317.83-29.8Z" opacity="1" transform="matrix(1,0,0,1,0,0)" fill="#003b73" class="wordmark-text-0" data-fill-palette-color="primary" id="text-0"></path></svg></g></svg></g></svg></g></svg></g><g transform="matrix(1,0,0,1,0,0.4989459352941168)"><svg viewBox="0 0 101.60176446660523 52.13799048235295" height="52.13799048235295" width="101.60176446660523"><g><svg xmlns="http://www.w3.org/2000/svg" xmlns:xlink="http://www.w3.org/1999/xlink" version="1.1" x="0" y="0" viewBox="6.319 12.876 71.541 36.712" enable-background="new 0 0 84.559 58.088" xml:space="preserve" height="52.13799048235295" width="101.60176446660523" class="icon-icon-0" data-fill-palette-color="accent" id="icon-0"><path d="M77.859 34.853A3.92 3.92 0 0 1 75.083 33.703 3.93 3.93 0 0 1 77.859 26.997V12.877L6.32 12.876 6.319 27.151C7.404 27.151 8.386 27.589 9.097 28.301A3.93 3.93 0 0 1 6.32 35.007V49.588H77.86zM12.596 39.119A10.2 10.2 0 0 0 16.523 31.078C16.523 28.353 15.461 25.791 13.536 23.865A11 11 0 0 0 12.597 23.031V19.152L71.584 19.153V22.885A10.19 10.19 0 0 0 67.657 30.926 10.14 10.14 0 0 0 70.646 38.141C70.944 38.439 71.258 38.717 71.584 38.973V43.312H12.596z" fill="#0074b7" data-fill-palette-color="accent"></path></svg></g></svg></g></svg></g></svg></g></svg></g><defs></defs></svg><rect width="395.52" height="41.23545519303801" fill="none" stroke="none" visibility="hidden"></rect></g></svg></g></svg>